<svg width="20" height="20" viewBox="0 0 20 20" fill="none" xmlns="http://www.w3.org/2000/svg">
<path d="M0 2.5C0 1.11929 1.11929 0 2.5 0H17.5C18.8807 0 20 1.11929 20 2.5V17.5C20 18.8807 18.8807 20 17.5 20H2.5C1.11929 20 0 18.8807 0 17.5V2.5Z" fill="#3B64FC"/>
<path d="M0 15.3125H20V17.5C20 18.8807 18.8807 20 17.5 20H2.5C1.11929 20 0 18.8807 0 17.5V15.3125Z" fill="#1050E7"/>
<path d="M17.5 9.56186e-08C18.8807 1.55971e-07 20 1.11929 20 2.5L20 17.5806C20 18.9168 18.9168 20 17.5806 20C16.328 20 15.3125 18.9845 15.3125 17.7319L15.3125 0L17.5 9.56186e-08Z" fill="#5589FF"/>
<path d="M15.3125 17.7319C15.3125 18.9845 16.328 20 17.5806 20C18.9168 20 20 18.9168 20 17.5806C20 16.328 18.9845 15.3125 17.7319 15.3125H15.3125V17.7319Z" fill="#3B64FC"/>
<g clip-path="url(#clip0_1339_305)">
<path d="M4.7991 11.1719L2.96851 3.82812H4.43754L5.74502 9.6605L6.96404 4.12443H8.28425L9.63299 9.70616L10.8004 3.82812H12.2654L10.6009 11.1719H8.76161L7.65799 6.72172L6.62339 11.1719H4.7991Z" fill="white"/>
</g>
<defs>
<clipPath id="clip0_1339_305">
<rect width="10.3125" height="10.3125" fill="white" transform="translate(2.5 2.5)"/>
</clipPath>
</defs>
</svg>
