<svg id="loopi" viewBox="0 0 400 400" data-mood="idle" data-face-rotation="0" data-time="57.877" xmlns="http://www.w3.org/2000/svg">
<defs>
<linearGradient id="ceramic" x1="100" y1="65" x2="280" y2="330" gradientUnits="userSpaceOnUse"><stop stop-color="#41494C"></stop><stop offset=".48" stop-color="#30383C"></stop><stop offset="1" stop-color="#3B4449"></stop></linearGradient>
<linearGradient id="enamel" x1="230" y1="63" x2="326" y2="170" gradientUnits="userSpaceOnUse"><stop stop-color="#6C9FF6"></stop><stop offset="1" stop-color="#387DE5"></stop></linearGradient>
<linearGradient id="porcelain" x1="180" y1="127" x2="218" y2="247" gradientUnits="userSpaceOnUse"><stop stop-color="#FFFEF9"></stop><stop offset=".65" stop-color="#F6F3EB"></stop><stop offset="1" stop-color="#EAE6DC"></stop></linearGradient>
<linearGradient id="edge" x1="170" y1="50" x2="224" y2="310" gradientUnits="userSpaceOnUse"><stop stop-color="#FFFFFF" stop-opacity=".36"></stop><stop offset=".46" stop-color="#FFFFFF" stop-opacity=".04"></stop><stop offset="1" stop-color="#FFFFFF" stop-opacity="0"></stop></linearGradient>
<filter id="soft-shadow" x="-40%" y="-40%" width="180%" height="200%"><feDropShadow dx="0" dy="4" stdDeviation="4" flood-color="#39473E" flood-opacity=".09"></feDropShadow></filter>
<filter id="floor-blur" x="-40%" y="-300%" width="180%" height="700%"><feGaussianBlur stdDeviation="5"></feGaussianBlur></filter>
</defs>
<ellipse id="floor" cx="200" cy="349" rx="73.000" ry="6" fill="#546455" opacity=".10" filter="url(#floor-blur)"></ellipse>
<g id="ring-motion" transform="translate(0.000 0.000) rotate(0.000 200 190)">
<g fill="none" stroke-width="35" stroke-linecap="round" transform="translate(0 3)" opacity=".95"><path class="ai-arc" stroke="#232C30" d="M317.4640866514022 214.53952622101485 A120 120 0 1 1 175.4604737789851 72.53591334859782"></path><path class="human-arc" stroke="#2866C4" d="M229.43688630545626 73.66655801258332 A120 120 0 0 1 316.3334419874166 160.5631136945436"></path></g>
<g fill="none" stroke-width="35" stroke-linecap="round" filter="url(#soft-shadow)"><path class="ai-arc" stroke="url(#ceramic)" d="M317.4640866514022 214.53952622101485 A120 120 0 1 1 175.4604737789851 72.53591334859782"></path><path class="human-arc" stroke="url(#enamel)" d="M229.43688630545626 73.66655801258332 A120 120 0 0 1 316.3334419874166 160.5631136945436"></path></g>
<g fill="none" stroke-width="1.2" stroke-linecap="round" opacity=".75"><path id="ai-edge" stroke="url(#edge)" d="M332.4453666366735 223.02233874935465 A136.5 136.5 0 1 1 166.97766125064535 57.554633363326474"></path><path id="human-edge" stroke="#D9E8FF" opacity=".5" d="M237.62449906902043 58.78777850441949 A136.5 136.5 0 0 1 331.2122214955805 152.37550093097954"></path></g>
<path id="blue-cue" fill="none" stroke="#9ABFFF" stroke-width="2" stroke-linecap="round" opacity="0" d="M258.1633399598395 59.36299955710808 A143 143 0 0 1 323.8416327411747 118.49999999999994"></path>
</g>
<g id="core-position" transform="translate(0.000 0.000)"><g id="core-shape" transform="translate(200 190) scale(1.0000 1.0000) translate(-200 -190)">
<path d="M130 190 C130 153 156 131 200 131 C244 131 270 153 270 190 C270 229 244 250 200 250 C156 250 130 229 130 190Z" fill="#DCDDD3" opacity=".5" transform="translate(0 2)"></path>
<path d="M130 190 C130 153 156 131 200 131 C244 131 270 153 270 190 C270 229 244 250 200 250 C156 250 130 229 130 190Z" fill="url(#porcelain)" stroke="#FFFFFF" stroke-opacity=".8" stroke-width="1" filter="url(#soft-shadow)"></path>
</g><g id="face" transform="translate(0.000 0.000)">
<g id="cheeks" opacity="0.000"><ellipse cx="168" cy="207" rx="8" ry="3.5" fill="#E8B8A5"></ellipse><ellipse cx="232" cy="207" rx="8" ry="3.5" fill="#E8B8A5"></ellipse></g>
<g id="eye-left"><ellipse class="eye-fill" cx="179" cy="188" rx="4.4" ry="6.200" fill="#293236" opacity="1"></ellipse><circle class="eye-glint" cx="180" cy="186" r=".9" fill="#FFFEFA" opacity="1"></circle><path class="eye-curve" d="M174 188 Q179 181 184 188" fill="none" stroke="#293236" stroke-width="2.8" stroke-linecap="round" opacity="0"></path></g>
<g id="eye-right"><ellipse class="eye-fill" cx="221" cy="188" rx="4.4" ry="6.200" fill="#293236" opacity="1"></ellipse><circle class="eye-glint" cx="222" cy="186" r=".9" fill="#FFFEFA" opacity="1"></circle><path class="eye-curve" d="M216 188 Q221 181 226 188" fill="none" stroke="#293236" stroke-width="2.8" stroke-linecap="round" opacity="0"></path></g>
<path id="mouth" d="M193 207 Q200 213.000 207 207" fill="none" stroke="#293236" stroke-width="2.5" stroke-linecap="round"></path>
</g></g>
</svg>
